<svg width="17" height="17" viewBox="0 0 17 17" fill="none" xmlns="http://www.w3.org/2000/svg">
<path d="M1.00002 14.8335H1.83335V4.30016C1.83338 4.03778 1.91597 3.78206 2.06942 3.56922C2.22288 3.35639 2.43941 3.19724 2.68835 3.11433L9.35502 0.892664C9.5429 0.830087 9.74296 0.813044 9.93872 0.842939C10.1345 0.872835 10.3203 0.948813 10.481 1.06461C10.6416 1.18042 10.7725 1.33273 10.8627 1.509C10.9529 1.68528 11 1.88047 11 2.0785V14.8335H11.8334V7.32516C11.8334 7.26354 11.8471 7.2027 11.8735 7.14701C11.8999 7.09132 11.9383 7.04218 11.9859 7.00313C12.0336 6.96407 12.0893 6.93607 12.1491 6.92115C12.2089 6.90623 12.2713 6.90475 12.3317 6.91683L14.1617 7.2835C14.445 7.34012 14.6999 7.49309 14.8831 7.71642C15.0663 7.93974 15.1665 8.21963 15.1667 8.5085V14.8335H16C16.221 14.8335 16.433 14.9213 16.5893 15.0776C16.7456 15.2339 16.8334 15.4458 16.8334 15.6668C16.8334 15.8878 16.7456 16.0998 16.5893 16.2561C16.433 16.4124 16.221 16.5002 16 16.5002H1.00002C0.779007 16.5002 0.567045 16.4124 0.410765 16.2561C0.254484 16.0998 0.166687 15.8878 0.166687 15.6668C0.166687 15.4458 0.254484 15.2339 0.410765 15.0776C0.567045 14.9213 0.779007 14.8335 1.00002 14.8335Z"/>
</svg>
