<svg width="41" height="40" viewBox="0 0 41 40" fill="none" xmlns="http://www.w3.org/2000/svg">
<path d="M17.6198 38.6664V34.222H13.1753V29.7776H17.6198V25.1109C14.6938 24.5924 12.2953 23.1939 10.4242 20.9153C8.55309 18.6368 7.61827 15.9983 7.61975 12.9998C7.61975 9.62941 8.81457 6.76867 11.2042 4.41756C13.5938 2.06645 16.4731 0.890155 19.842 0.888673C23.2109 0.887192 26.0909 2.06349 28.482 4.41756C30.8731 6.77164 32.0672 9.63238 32.0642 12.9998C32.0642 15.9998 31.1286 18.639 29.2575 20.9176C27.3864 23.1961 24.9886 24.5939 22.0642 25.1109V29.7776H26.5086V34.222H22.0642V38.6664H17.6198ZM19.842 20.8887C21.9901 20.8887 23.8235 20.1294 25.342 18.6109C26.8605 17.0924 27.6198 15.259 27.6198 13.1109C27.6198 10.9627 26.8605 9.12941 25.342 7.6109C23.8235 6.09238 21.9901 5.33312 19.842 5.33312C17.6938 5.33312 15.8605 6.09238 14.342 7.6109C12.8235 9.12941 12.0642 10.9627 12.0642 13.1109C12.0642 15.259 12.8235 17.0924 14.342 18.6109C15.8605 20.1294 17.6938 20.8887 19.842 20.8887Z"/>
</svg>
