<svg width="18" height="17" viewBox="0 0 18 17" fill="none" xmlns="http://www.w3.org/2000/svg">
<path d="M7.5 0C6.43913 0 5.42172 0.421427 4.67157 1.17157C3.92143 1.92172 3.5 2.93913 3.5 4C3.5 5.06087 3.92143 6.07828 4.67157 6.82843C5.42172 7.57857 6.43913 8 7.5 8C8.56087 8 9.57828 7.57857 10.3284 6.82843C11.0786 6.07828 11.5 5.06087 11.5 4C11.5 2.93913 11.0786 1.92172 10.3284 1.17157C9.57828 0.421427 8.56087 0 7.5 0ZM2.509 9C2.2456 8.99881 1.98456 9.04967 1.74087 9.14965C1.49718 9.24963 1.27564 9.39676 1.08896 9.58259C0.902293 9.76843 0.754169 9.98931 0.653097 10.2325C0.552026 10.4758 0.499997 10.7366 0.5 11C0.5 12.691 1.333 13.966 2.635 14.797C3.917 15.614 5.645 16 7.5 16C7.91133 16 8.31467 15.981 8.71 15.943C7.92514 14.9673 7.49812 13.7522 7.5 12.5C7.5 11.17 7.972 9.95 8.757 9H2.509ZM17.5 12.5C17.5 13.6935 17.0259 14.8381 16.182 15.682C15.3381 16.5259 14.1935 17 13 17C11.8065 17 10.6619 16.5259 9.81802 15.682C8.97411 14.8381 8.5 13.6935 8.5 12.5C8.5 11.3065 8.97411 10.1619 9.81802 9.31802C10.6619 8.47411 11.8065 8 13 8C14.1935 8 15.3381 8.47411 16.182 9.31802C17.0259 10.1619 17.5 11.3065 17.5 12.5ZM13.476 9.86C13.4471 9.75595 13.3849 9.66423 13.299 9.59887C13.213 9.53352 13.108 9.49814 13 9.49814C12.892 9.49814 12.787 9.53352 12.701 9.59887C12.6151 9.66423 12.5529 9.75595 12.524 9.86L12.047 11.392H10.5C10.016 11.392 9.814 12.039 10.206 12.336L11.456 13.283L10.979 14.815C10.829 15.295 11.357 15.695 11.749 15.398L12.999 14.451L14.249 15.398C14.641 15.695 15.169 15.295 15.019 14.815L14.542 13.283L15.792 12.336C16.184 12.039 15.982 11.392 15.498 11.392H13.953L13.476 9.86Z"/>
</svg>
