<svg width="41" height="40" viewBox="0 0 41 40" fill="none" xmlns="http://www.w3.org/2000/svg">
<path d="M40.2708 0.952148V15.2379H35.5089V9.10691L26.0446 18.5117C26.7986 19.6228 27.3739 20.8037 27.7708 22.0545C28.1676 23.3053 28.366 24.6045 28.366 25.9521C28.366 29.6029 27.0962 32.6982 24.5565 35.2379C22.0168 37.7775 18.9216 39.0474 15.2708 39.0474C11.62 39.0474 8.52474 37.7775 5.98506 35.2379C3.44538 32.6982 2.17554 29.6029 2.17554 25.9521C2.17554 22.3014 3.44538 19.2061 5.98506 16.6664C8.52474 14.1268 11.62 12.8569 15.2708 12.8569C16.5803 12.8569 17.87 13.045 19.1398 13.4212C20.4097 13.7974 21.5803 14.3831 22.6517 15.1783L32.116 5.71405H25.9851V0.952148H40.2708ZM15.2708 17.6188C12.9692 17.6188 11.0049 18.4323 9.37792 20.0593C7.75093 21.6863 6.93744 23.6506 6.93744 25.9521C6.93744 28.2537 7.75093 30.218 9.37792 31.845C11.0049 33.472 12.9692 34.2855 15.2708 34.2855C17.5724 34.2855 19.5366 33.472 21.1636 31.845C22.7906 30.218 23.6041 28.2537 23.6041 25.9521C23.6041 23.6506 22.7906 21.6863 21.1636 20.0593C19.5366 18.4323 17.5724 17.6188 15.2708 17.6188Z"/>
</svg>
