<svg width="33" height="32" viewBox="0 0 33 32" fill="none" xmlns="http://www.w3.org/2000/svg">
<path d="M27.8837 6H5.88367C5.35324 6 4.84453 6.21071 4.46946 6.58579C4.09439 6.96086 3.88367 7.46957 3.88367 8V28C3.88137 28.3814 3.98926 28.7553 4.19437 29.0768C4.39949 29.3984 4.6931 29.6538 5.03992 29.8125C5.30421 29.9356 5.59214 29.9995 5.88367 30C6.35316 29.9988 6.80705 29.8314 7.16492 29.5275L7.17617 29.5187L11.2587 26H27.8837C28.4141 26 28.9228 25.7893 29.2979 25.4142C29.673 25.0391 29.8837 24.5304 29.8837 24V8C29.8837 7.46957 29.673 6.96086 29.2979 6.58579C28.9228 6.21071 28.4141 6 27.8837 6ZM20.8837 19H12.8837C12.6185 19 12.3641 18.8946 12.1766 18.7071C11.989 18.5196 11.8837 18.2652 11.8837 18C11.8837 17.7348 11.989 17.4804 12.1766 17.2929C12.3641 17.1054 12.6185 17 12.8837 17H20.8837C21.1489 17 21.4032 17.1054 21.5908 17.2929C21.7783 17.4804 21.8837 17.7348 21.8837 18C21.8837 18.2652 21.7783 18.5196 21.5908 18.7071C21.4032 18.8946 21.1489 19 20.8837 19ZM20.8837 15H12.8837C12.6185 15 12.3641 14.8946 12.1766 14.7071C11.989 14.5196 11.8837 14.2652 11.8837 14C11.8837 13.7348 11.989 13.4804 12.1766 13.2929C12.3641 13.1054 12.6185 13 12.8837 13H20.8837C21.1489 13 21.4032 13.1054 21.5908 13.2929C21.7783 13.4804 21.8837 13.7348 21.8837 14C21.8837 14.2652 21.7783 14.5196 21.5908 14.7071C21.4032 14.8946 21.1489 15 20.8837 15Z" fill="#EEECEE"/>
</svg>
