<svg width="16" height="16" viewBox="0 0 16 16" fill="none" xmlns="http://www.w3.org/2000/svg">
<path d="M8 8.6665C8.36819 8.6665 8.66667 8.36803 8.66667 7.99984C8.66667 7.63165 8.36819 7.33317 8 7.33317C7.63181 7.33317 7.33334 7.63165 7.33334 7.99984C7.33334 8.36803 7.63181 8.6665 8 8.6665Z" fill="#CDC6CC"/>
<path d="M8 3.99984C8.36819 3.99984 8.66667 3.70136 8.66667 3.33317C8.66667 2.96498 8.36819 2.6665 8 2.6665C7.63181 2.6665 7.33334 2.96498 7.33334 3.33317C7.33334 3.70136 7.63181 3.99984 8 3.99984Z" fill="#CDC6CC"/>
<path d="M8 13.3332C8.36819 13.3332 8.66667 13.0347 8.66667 12.6665C8.66667 12.2983 8.36819 11.9998 8 11.9998C7.63181 11.9998 7.33334 12.2983 7.33334 12.6665C7.33334 13.0347 7.63181 13.3332 8 13.3332Z" fill="#CDC6CC"/>
<path d="M8 8.6665C8.36819 8.6665 8.66667 8.36803 8.66667 7.99984C8.66667 7.63165 8.36819 7.33317 8 7.33317C7.63181 7.33317 7.33334 7.63165 7.33334 7.99984C7.33334 8.36803 7.63181 8.6665 8 8.6665Z" stroke="#CDC6CC" stroke-width="1.66667" stroke-linecap="round" stroke-linejoin="round"/>
<path d="M8 3.99984C8.36819 3.99984 8.66667 3.70136 8.66667 3.33317C8.66667 2.96498 8.36819 2.6665 8 2.6665C7.63181 2.6665 7.33334 2.96498 7.33334 3.33317C7.33334 3.70136 7.63181 3.99984 8 3.99984Z" stroke="#CDC6CC" stroke-width="1.66667" stroke-linecap="round" stroke-linejoin="round"/>
<path d="M8 13.3332C8.36819 13.3332 8.66667 13.0347 8.66667 12.6665C8.66667 12.2983 8.36819 11.9998 8 11.9998C7.63181 11.9998 7.33334 12.2983 7.33334 12.6665C7.33334 13.0347 7.63181 13.3332 8 13.3332Z" stroke="#CDC6CC" stroke-width="1.66667" stroke-linecap="round" stroke-linejoin="round"/>
</svg>
