<svg width="34" height="32" viewBox="0 0 34 32" fill="none" xmlns="http://www.w3.org/2000/svg">
<g clip-path="url(#clip0_478_625)">
<path d="M14.4414 31.9186L14.4208 31.918C14.4279 31.918 14.4343 31.918 14.4414 31.9186Z"/>
<path d="M10.0567 14.1093C10.0567 14.5995 10.4532 14.996 10.9434 14.996C11.4336 14.996 11.8301 14.5995 11.8301 14.1093C11.8301 13.6192 11.4329 13.2227 10.9434 13.2227C10.4538 13.2227 10.0567 13.6198 10.0567 14.1093Z"/>
<path d="M19.5587 31.9186C19.5657 31.918 19.5721 31.918 19.5792 31.918H19.5587V31.9186Z"/>
<path d="M33.3029 24.1602C33.333 24.3982 33.358 24.6375 33.3773 24.8787C33.367 24.6349 33.342 24.3956 33.3029 24.1602Z"/>
<path d="M33.3779 24.8828C33.3779 24.8828 33.3779 24.8803 33.3773 24.879C33.358 24.6377 33.333 24.3984 33.3028 24.1604C33.3028 24.1578 33.3028 24.1559 33.3022 24.154C33.299 24.1251 33.2951 24.0969 33.2913 24.068C33.2913 24.0648 33.2913 24.0616 33.29 24.0577C33.1899 23.2955 33.0366 22.5487 32.8351 21.8231C32.8287 21.7981 32.8216 21.773 32.8139 21.748C32.6625 21.2097 32.4835 20.683 32.2795 20.1684C32.2789 20.1665 32.2776 20.1639 32.2769 20.162C31.9324 19.2939 31.516 18.4624 31.0348 17.6746C30.6454 17.0375 30.2149 16.4292 29.7446 15.8537C29.9435 14.9504 30.0474 14.0111 30.0474 13.048C30.0474 10.7152 29.4353 8.5261 28.3626 6.63149C28.1971 6.33828 28.02 6.05213 27.8326 5.77368C27.7755 5.68899 27.7178 5.6043 27.6581 5.52089C28.0995 5.10963 28.3761 4.52322 28.3761 3.872C28.3761 3.78025 28.3703 3.68979 28.36 3.60125C28.2407 2.6055 27.4714 1.80929 26.4879 1.64953C26.3698 1.63028 26.2479 1.62002 26.1241 1.62002C25.4684 1.62002 24.8781 1.90039 24.4668 2.34758C22.3515 0.868073 19.7775 0 17 0C14.2226 0 11.6485 0.868073 9.53316 2.34758C9.1219 1.90039 8.53164 1.62002 7.87594 1.62002C7.75211 1.62002 7.63021 1.63028 7.51215 1.64953C6.52859 1.80929 5.75933 2.6055 5.63999 3.60125C5.62972 3.68979 5.62395 3.78025 5.62395 3.872C5.62395 4.52322 5.90048 5.10963 6.34189 5.52089C6.28222 5.6043 6.22448 5.68899 6.16738 5.77368C5.98003 6.05213 5.80295 6.33828 5.63742 6.63149C4.56468 8.5261 3.95261 10.7152 3.95261 13.048C3.95261 14.0111 4.05654 14.9504 4.25544 15.8537C3.78515 16.4292 3.35464 17.0375 2.9652 17.6746C2.484 18.4624 2.06761 19.2939 1.72308 20.162C1.72308 20.1639 1.72115 20.1665 1.72051 20.1684C1.51648 20.683 1.33748 21.2097 1.18606 21.748C1.17837 21.773 1.17131 21.7981 1.16489 21.8231C0.963432 22.5487 0.810092 23.2955 0.710004 24.0577C0.709362 24.0616 0.709362 24.0648 0.708721 24.068C0.704871 24.0969 0.701022 24.1251 0.697814 24.154C0.697172 24.1559 0.697172 24.1578 0.697172 24.1604C0.697172 24.1617 0.697172 24.163 0.697172 24.1649C0.658677 24.3971 0.634296 24.6332 0.623389 24.8738C0.623389 24.8758 0.623389 24.8771 0.623389 24.879C0.623389 24.8803 0.623389 24.8815 0.623389 24.8828C0.61954 24.9707 0.617615 25.0586 0.617615 25.1472C0.617615 27.4203 1.87449 29.3996 3.73126 30.4281C3.73254 30.4294 3.73382 30.43 3.73511 30.43C3.76975 30.4493 3.80504 30.4685 3.84033 30.4871L3.92502 30.5314C4.52811 30.8458 5.15816 31.114 5.81194 31.3321C7.11052 31.7652 8.5002 32 9.94442 32H10.0022C10.0156 32 10.0285 32 10.0419 32H10.0548H10.0804C10.0804 32 10.0836 32 10.0849 31.9994C10.0875 31.9994 10.0894 32 10.092 31.9994H10.1132C12.4049 31.9403 14.245 30.0637 14.245 27.7572C14.245 27.6859 14.2431 27.6154 14.2392 27.5454C14.2065 26.8679 14.0147 26.2321 13.6997 25.6752C13.4295 25.1959 13.0696 24.7744 12.6417 24.4344C12.4524 24.2836 12.2503 24.1488 12.0367 24.0321C11.4323 23.701 10.7394 23.513 10.0015 23.513C9.75965 23.513 9.5229 23.5329 9.29257 23.5721L8.91724 19.5557L8.33146 13.2848C8.2795 12.7266 8.52843 12.2159 8.93969 11.9041C9.07122 11.8297 9.20403 11.7572 9.33812 11.6859C9.33876 11.6853 9.34004 11.6853 9.34069 11.6853C9.50686 11.6243 9.68586 11.591 9.87385 11.591H14.2886C14.7262 10.5567 15.7386 9.82404 16.9256 9.79389C16.9506 9.79389 16.9756 9.79389 17.0006 9.79389C17.0257 9.79389 17.0507 9.79389 17.0757 9.79389C18.2627 9.82404 19.2751 10.5567 19.7127 11.591H24.1274C24.3154 11.591 24.4944 11.6243 24.6606 11.6853C24.6612 11.6853 24.6625 11.6853 24.6632 11.6859C24.7973 11.7572 24.9301 11.8297 25.0616 11.9041C25.4729 12.2159 25.7218 12.7266 25.6698 13.2848L25.084 19.5557L24.7087 23.5721C24.4784 23.5329 24.2416 23.513 23.9998 23.513C23.2619 23.513 22.569 23.701 21.9646 24.0321C21.751 24.1488 21.5489 24.2836 21.3596 24.4344C20.9317 24.7744 20.5717 25.1959 20.3016 25.6752C19.9866 26.2321 19.7948 26.8679 19.7621 27.5454C19.7582 27.6154 19.7563 27.6859 19.7563 27.7572C19.7563 30.0637 21.5964 31.9403 23.8881 31.9994H23.9093C23.9093 31.9994 23.9138 32 23.9164 31.9994C23.9164 31.9994 23.9196 32 23.9208 32H23.9465H23.9593C23.9728 32 23.9856 32 23.9991 32H24.0569C25.5011 32 26.8908 31.7652 28.1894 31.3321C28.8431 31.114 29.4732 30.8458 30.0763 30.5314L30.161 30.4871C30.1962 30.4685 30.2315 30.4493 30.2662 30.43C30.2675 30.43 30.2687 30.4294 30.27 30.4281C32.1268 29.3996 33.3837 27.4203 33.3837 25.1472C33.3837 25.0586 33.3817 24.9707 33.3779 24.8828ZM12.6802 25.3428C12.6802 25.3499 12.6802 25.3563 12.6789 25.3634C12.6795 25.3563 12.6802 25.3499 12.6802 25.3428ZM10.0798 31.9987C10.0798 31.9987 10.0747 31.9987 10.0727 31.9987C10.0753 31.9987 10.0772 31.9987 10.0798 31.9987ZM11.9192 9.87794C11.2623 9.87794 10.7304 9.34542 10.7304 8.68907C10.7304 8.03272 11.2623 7.5002 11.9192 7.5002C12.5762 7.5002 13.1081 8.03272 13.1081 8.68907C13.1081 9.34542 12.5756 9.87794 11.9192 9.87794ZM22.0808 9.87794C21.4244 9.87794 20.8919 9.34542 20.8919 8.68907C20.8919 8.03272 21.4244 7.5002 22.0808 7.5002C22.7371 7.5002 23.2696 8.03272 23.2696 8.68907C23.2696 9.34542 22.7378 9.87794 22.0808 9.87794Z"/>
</g>
<defs>
<clipPath id="clip0_478_625">
<rect width="32.7673" height="32" fill="white" transform="translate(0.616333)"/>
</clipPath>
</defs>
</svg>
