<svg width="29" height="28" viewBox="0 0 29 28" fill="none" xmlns="http://www.w3.org/2000/svg">
<path d="M27.4163 26.8002L18.883 18.2669M1.81635 11.1558C1.81635 12.4631 2.07385 13.7577 2.57417 14.9656C3.07448 16.1734 3.8078 17.2709 4.73226 18.1954C5.65672 19.1198 6.75421 19.8532 7.96207 20.3535C9.16994 20.8538 10.4645 21.1113 11.7719 21.1113C13.0793 21.1113 14.3739 20.8538 15.5817 20.3535C16.7896 19.8532 17.8871 19.1198 18.8115 18.1954C19.736 17.2709 20.4693 16.1734 20.9696 14.9656C21.4699 13.7577 21.7275 12.4631 21.7275 11.1558C21.7275 9.84837 21.4699 8.55379 20.9696 7.34592C20.4693 6.13806 19.736 5.04057 18.8115 4.11611C17.8871 3.19165 16.7896 2.45833 15.5817 1.95802C14.3739 1.4577 13.0793 1.2002 11.7719 1.2002C10.4645 1.2002 9.16994 1.4577 7.96207 1.95802C6.75421 2.45833 5.65672 3.19165 4.73226 4.11611C3.8078 5.04057 3.07448 6.13806 2.57417 7.34592C2.07385 8.55379 1.81635 9.84837 1.81635 11.1558Z" stroke="#EEECEE" stroke-width="2" stroke-linecap="round" stroke-linejoin="round"/>
</svg>
