<svg width="27" height="27" viewBox="0 0 27 27" fill="none" xmlns="http://www.w3.org/2000/svg">
<path d="M11.0113 0.777236C11.599 0.277699 12.3451 0.00341797 13.1163 0.00341797C13.8876 0.00341797 14.6337 0.277699 15.2213 0.777236L24.9713 9.06424C25.3302 9.36932 25.6185 9.74876 25.8162 10.1763C26.0139 10.6038 26.1163 11.0692 26.1163 11.5402V24.5002C26.1163 25.1633 25.8529 25.7992 25.3841 26.268C24.9153 26.7368 24.2794 27.0002 23.6163 27.0002H19.6163C18.9533 27.0002 18.3174 26.7368 17.8486 26.268C17.3797 25.7992 17.1163 25.1633 17.1163 24.5002V18.0002C17.1163 17.4714 16.9069 16.964 16.5337 16.5892C16.1606 16.2144 15.6542 16.0026 15.1253 16.0002H11.1063C10.5776 16.0029 10.0715 16.2148 9.69858 16.5895C9.32567 16.9643 9.11633 17.4715 9.11633 18.0002V24.5002C9.11633 24.8285 9.05167 25.1536 8.92603 25.4569C8.8004 25.7603 8.61625 26.0359 8.3841 26.268C8.15195 26.5002 7.87636 26.6843 7.57304 26.8099C7.26973 26.9356 6.94464 27.0002 6.61633 27.0002H2.61633C1.95329 27.0002 1.31741 26.7368 0.848566 26.268C0.379725 25.7992 0.116333 25.1633 0.116333 24.5002V11.5402C0.116359 11.0692 0.218771 10.6038 0.416477 10.1763C0.614182 9.74876 0.902456 9.36932 1.26133 9.06424L11.0113 0.777236Z" fill="#EEECEE"/>
</svg>
