<svg width="393" height="746" viewBox="0 0 393 746" fill="none" xmlns="http://www.w3.org/2000/svg">
<path d="M33.6733 327.968C33.6733 339.297 42.6414 348.926 54.412 348.926C66.1826 348.926 75.1507 339.863 75.1507 327.968C75.1507 316.073 66.1826 307.01 54.412 307.01C42.6414 307.01 33.6733 316.073 33.6733 327.968Z"/>
<path d="M572.318 579.467C572.318 573.803 571.197 568.138 570.637 562.474C570.637 561.907 570.637 560.774 570.637 560.208C568.395 542.082 565.032 524.522 559.987 508.096C559.987 507.529 559.987 506.963 559.987 506.396C556.624 493.935 552.14 481.473 547.656 469.578C539.809 449.186 530.281 429.927 519.07 411.801C510.102 397.074 500.013 382.913 489.364 369.318C493.848 348.36 496.09 326.269 496.09 303.611C496.09 249.233 482.077 198.254 457.415 154.071C453.491 147.274 449.568 140.477 445.084 134.246C443.963 132.547 442.281 130.281 441.16 128.582C451.249 118.952 457.975 105.358 457.975 90.0638C457.975 74.7699 457.975 85.5323 457.975 83.8329C455.173 60.609 437.237 41.9165 414.817 38.5178C412.014 38.5178 409.211 37.9514 406.409 37.9514C391.275 37.9514 377.823 44.7487 368.295 54.9446C319.531 20.3918 260.117 0 195.659 0C131.201 0 72.3482 20.3918 23.0237 54.9446C13.4952 44.7487 0.0430298 37.9514 -15.0906 37.9514C-30.2242 37.9514 -20.6956 37.9514 -23.4982 38.5178C-46.4789 42.4829 -63.8545 60.609 -66.657 83.8329C-66.657 86.0987 -66.657 87.798 -66.657 90.0638C-66.657 105.358 -60.4915 118.952 -49.8419 128.582C-50.9629 130.281 -52.6444 132.547 -53.7654 134.246C-58.2495 141.043 -62.173 147.274 -66.0965 154.071C-90.7587 198.254 -104.771 249.233 -104.771 303.611C-104.771 357.989 -102.529 347.793 -98.0453 369.318C-108.695 382.913 -118.784 397.074 -127.752 411.801C-138.962 429.927 -148.491 449.752 -156.338 469.578C-160.822 481.473 -165.306 493.935 -168.669 506.396C-168.669 506.963 -168.669 507.529 -168.669 508.096C-173.153 525.089 -177.076 542.648 -179.318 560.208C-179.318 561.341 -179.318 561.907 -179.318 562.474C-180.439 568.138 -181 573.803 -181 579.467C-181 581.733 -181 583.998 -181 585.698C-181 638.943 -151.854 684.825 -109.255 709.181C-108.695 709.181 -107.574 710.314 -107.013 710.314L-105.332 711.447C-91.3192 718.811 -76.7461 725.042 -61.6125 730.14C-31.9058 740.336 0.603516 746 33.6733 746H37.5969C90.2843 744.867 132.883 700.685 132.883 646.873C132.883 593.061 132.883 643.475 132.883 641.775C132.322 625.915 127.838 611.188 120.552 598.159C114.386 586.831 105.978 577.201 95.8894 569.271C91.4053 565.872 86.9213 562.474 81.8767 559.642C67.8641 551.711 52.17 547.746 34.7943 547.746C17.4187 547.746 23.5842 547.746 18.5397 548.879L9.57162 455.417L-3.88051 309.276C-5.00151 296.248 0.603531 284.352 10.1321 276.989C12.9346 275.289 16.2977 273.59 19.1002 271.891C23.0237 270.758 26.9473 269.625 31.4313 269.625H133.443C143.532 245.268 167.073 228.275 194.538 227.708H197.901C225.366 228.275 248.907 245.268 258.996 269.625H361.008C365.492 269.625 369.416 270.191 373.339 271.891C376.702 273.59 379.505 275.289 382.307 276.989C391.836 284.352 397.441 296.248 396.32 309.276L382.868 455.417L373.9 548.879C368.855 547.746 363.25 547.746 357.645 547.746C340.83 547.746 324.575 552.278 310.563 559.642C305.518 562.474 301.034 565.306 296.55 569.271C286.461 577.201 278.614 586.831 271.888 598.159C264.601 611.188 260.117 625.915 259.557 641.775C259.557 643.475 259.557 645.174 259.557 646.873C259.557 700.685 302.155 744.301 354.843 746H358.766C391.836 746 424.345 740.336 454.052 730.14C469.185 725.042 483.759 718.811 497.771 711.447L500.013 710.314C500.574 710.314 501.695 709.181 502.255 709.181C544.854 685.391 574 638.943 574 585.698C574 532.453 574 581.733 574 579.467H572.318ZM76.8322 229.408C61.6986 229.408 49.3674 216.946 49.3674 201.652C49.3674 186.358 61.6986 173.897 76.8322 173.897C91.9658 173.897 104.297 186.358 104.297 201.652C104.297 216.946 91.9658 229.408 76.8322 229.408ZM311.123 229.408C295.99 229.408 283.658 216.946 283.658 201.652C283.658 186.358 295.99 173.897 311.123 173.897C326.257 173.897 338.588 186.358 338.588 201.652C338.588 216.946 326.257 229.408 311.123 229.408ZM293.748 590.229C293.748 590.229 293.748 590.229 293.748 590.796C293.748 590.796 293.748 590.796 293.748 590.229Z"/>
</svg>
