<svg width="135" height="132" viewBox="0 0 135 132" fill="none" xmlns="http://www.w3.org/2000/svg">
<path d="M134.55 102.6C134.55 101.6 134.35 100.6 134.25 99.5998C134.25 99.4998 134.25 99.2998 134.25 99.1998C133.85 95.9998 133.25 92.8998 132.35 89.9998C132.35 89.8998 132.35 89.7998 132.35 89.6998C131.75 87.4998 130.95 85.2998 130.15 83.1998C128.75 79.5998 127.05 76.1998 125.05 72.9998C123.45 70.3998 121.65 67.8998 119.75 65.4998C120.55 61.7998 120.95 57.8998 120.95 53.8998C120.95 44.2998 118.45 35.2998 114.05 27.4998C113.35 26.2998 112.65 25.0998 111.85 23.9998C111.65 23.6998 111.35 23.2998 111.15 22.9998C112.95 21.2998 114.15 18.8998 114.15 16.1998C114.15 13.4998 114.15 15.3998 114.15 15.0998C113.65 10.9998 110.45 7.6998 106.45 7.0998C105.95 7.0998 105.45 6.99981 104.95 6.99981C102.25 6.99981 99.85 8.19981 98.15 9.99981C89.45 3.89981 78.85 0.299805 67.35 0.299805C55.85 0.299805 45.35 3.89981 36.55 9.99981C34.85 8.19981 32.45 6.99981 29.75 6.99981C27.05 6.99981 28.75 6.9998 28.25 7.0998C24.15 7.7998 21.05 10.9998 20.55 15.0998C20.55 15.4998 20.55 15.7998 20.55 16.1998C20.55 18.8998 21.65 21.2998 23.55 22.9998C23.35 23.2998 23.05 23.6998 22.85 23.9998C22.05 25.1998 21.35 26.2998 20.65 27.4998C16.25 35.2998 13.75 44.2998 13.75 53.8998C13.75 63.4998 14.15 61.6998 14.95 65.4998C13.05 67.8998 11.25 70.3998 9.64999 72.9998C7.64999 76.1998 5.95 79.6998 4.55 83.1998C3.75 85.2998 2.94999 87.4998 2.34999 89.6998C2.34999 89.7998 2.34999 89.8998 2.34999 89.9998C1.54999 92.9998 0.849993 96.0998 0.449993 99.1998C0.449993 99.3998 0.449993 99.4998 0.449993 99.5998C0.249993 100.6 0.149994 101.6 0.149994 102.6C0.149994 103 0.149994 103.4 0.149994 103.7C0.149994 113.1 5.34999 121.2 12.95 125.5C13.05 125.5 13.25 125.7 13.35 125.7L13.65 125.9C16.15 127.2 18.75 128.3 21.45 129.2C26.75 131 32.55 132 38.45 132H39.15C48.55 131.8 56.15 124 56.15 114.5C56.15 105 56.15 113.9 56.15 113.6C56.05 110.8 55.25 108.2 53.95 105.9C52.85 103.9 51.35 102.2 49.55 100.8C48.75 100.2 47.95 99.5998 47.05 99.0998C44.55 97.6998 41.75 96.9998 38.65 96.9998C35.55 96.9998 36.65 96.9998 35.75 97.1998L34.15 80.6998L31.75 54.8998C31.55 52.5998 32.55 50.4998 34.25 49.1998C34.75 48.8998 35.35 48.5998 35.85 48.2998C36.55 48.0998 37.25 47.8998 38.05 47.8998H56.25C58.05 43.5998 62.25 40.5998 67.15 40.4998H67.75C72.65 40.5998 76.85 43.5998 78.65 47.8998H96.85C97.65 47.8998 98.35 47.9998 99.05 48.2998C99.65 48.5998 100.15 48.8998 100.65 49.1998C102.35 50.4998 103.35 52.5998 103.15 54.8998L100.75 80.6998L99.15 97.1998C98.25 96.9998 97.25 96.9998 96.25 96.9998C93.25 96.9998 90.35 97.7998 87.85 99.0998C86.95 99.5998 86.15 100.1 85.35 100.8C83.55 102.2 82.15 103.9 80.95 105.9C79.65 108.2 78.85 110.8 78.75 113.6C78.75 113.9 78.75 114.2 78.75 114.5C78.75 124 86.35 131.7 95.75 132H96.45C102.35 132 108.15 131 113.45 129.2C116.15 128.3 118.75 127.2 121.25 125.9L121.65 125.7C121.75 125.7 121.95 125.5 122.05 125.5C129.65 121.3 134.85 113.1 134.85 103.7C134.85 94.2998 134.85 103 134.85 102.6H134.55ZM46.15 40.7998C43.45 40.7998 41.25 38.5998 41.25 35.8998C41.25 33.1998 43.45 30.9998 46.15 30.9998C48.85 30.9998 51.05 33.1998 51.05 35.8998C51.05 38.5998 48.85 40.7998 46.15 40.7998ZM87.95 40.7998C85.25 40.7998 83.05 38.5998 83.05 35.8998C83.05 33.1998 85.25 30.9998 87.95 30.9998C90.65 30.9998 92.85 33.1998 92.85 35.8998C92.85 38.5998 90.65 40.7998 87.95 40.7998ZM84.85 104.5C84.85 104.5 84.85 104.5 84.85 104.6C84.85 104.6 84.85 104.6 84.85 104.5Z" fill="url(#paint0_linear_222_1649)"/>
<defs>
<linearGradient id="paint0_linear_222_1649" x1="67.05" y1="26.6998" x2="67.05" y2="161.6" gradientUnits="userSpaceOnUse">
<stop stop-color="#FE67F7"/>
<stop offset="1" stop-color="#9B3DFF"/>
</linearGradient>
</defs>
</svg>
