<svg width="41" height="40" viewBox="0 0 41 40" fill="none" xmlns="http://www.w3.org/2000/svg">
<path d="M40.8851 31.0706C40.8851 30.7669 40.8243 30.4632 40.7939 30.1595C40.7939 30.1291 40.7939 30.0683 40.7939 30.038C40.6723 29.0661 40.4899 28.1245 40.2162 27.2437C40.2162 27.2134 40.2162 27.183 40.2162 27.1526C40.0338 26.4844 39.7906 25.8162 39.5474 25.1784C39.1217 24.085 38.6049 23.0524 37.9968 22.0805C37.5104 21.2908 36.9632 20.5315 36.3855 19.8026C36.6287 18.6788 36.7503 17.4943 36.7503 16.2794C36.7503 13.3637 35.9903 10.6302 34.6525 8.2612C34.4397 7.89674 34.2269 7.53227 33.9837 7.19818C33.9229 7.10706 33.8317 6.98557 33.7709 6.89446C34.3181 6.37813 34.6829 5.6492 34.6829 4.82916C34.6829 4.00911 34.6829 4.58618 34.6829 4.49506C34.5309 3.24981 33.5581 2.24753 32.3419 2.0653C32.1899 2.0653 32.0379 2.03493 31.8859 2.03493C31.065 2.03493 30.3354 2.39939 29.8185 2.94609C27.1735 1.09339 23.9508 0 20.4545 0C16.9582 0 13.7659 1.09339 11.0905 2.94609C10.5736 2.39939 9.84398 2.03493 9.02311 2.03493C8.20224 2.03493 8.71908 2.03493 8.56707 2.0653C7.32056 2.2779 6.37808 3.24981 6.22607 4.49506C6.22607 4.61655 6.22607 4.70767 6.22607 4.82916C6.22607 5.6492 6.5605 6.37813 7.13815 6.89446C7.07734 6.98557 6.98613 7.10706 6.92533 7.19818C6.68211 7.56264 6.46929 7.89674 6.25647 8.2612C4.91875 10.6302 4.15869 13.3637 4.15869 16.2794C4.15869 19.1951 4.2803 18.6484 4.52352 19.8026C3.94587 20.5315 3.39862 21.2908 2.91218 22.0805C2.30412 23.0524 1.78728 24.1154 1.36164 25.1784C1.11842 25.8162 0.875199 26.4844 0.692783 27.1526C0.692783 27.183 0.692783 27.2134 0.692783 27.2437C0.449562 28.1549 0.236744 29.0964 0.115134 30.038C0.115134 30.0987 0.115134 30.1291 0.115134 30.1595C0.0543282 30.4632 0.0239258 30.7669 0.0239258 31.0706C0.0239258 31.1921 0.0239258 31.3136 0.0239258 31.4047C0.0239258 34.2597 1.60486 36.7198 3.91546 38.0258C3.94587 38.0258 4.00667 38.0866 4.03708 38.0866L4.12828 38.1473C4.88835 38.5421 5.67882 38.8762 6.49969 39.1496C8.11103 39.6963 9.87438 40 11.6681 40H11.881C14.7388 39.9393 17.0494 37.5702 17.0494 34.6849C17.0494 31.7995 17.0494 34.5027 17.0494 34.4115C17.019 33.5611 16.7758 32.7715 16.3806 32.0729C16.0461 31.4655 15.5901 30.9491 15.0428 30.5239C14.7996 30.3417 14.5564 30.1595 14.2828 30.0076C13.5227 29.5824 12.6714 29.3698 11.7289 29.3698C10.7865 29.3698 11.1209 29.3698 10.8473 29.4305L10.3608 24.4191L9.63116 16.5831C9.57036 15.8846 9.87438 15.2468 10.3912 14.8519C10.5432 14.7608 10.7257 14.6697 10.8777 14.5786C11.0905 14.5178 11.3033 14.4571 11.5465 14.4571H17.0798C17.6271 13.1511 18.904 12.2399 20.3937 12.2096H20.5761C22.0658 12.2399 23.3428 13.1511 23.89 14.4571H29.4233C29.6665 14.4571 29.8793 14.4875 30.0922 14.5786C30.2746 14.6697 30.4266 14.7608 30.5786 14.8519C31.0954 15.2468 31.3995 15.8846 31.3387 16.5831L30.609 24.4191L30.1226 29.4305C29.8489 29.3698 29.5449 29.3698 29.2409 29.3698C28.3288 29.3698 27.4471 29.6128 26.6871 30.0076C26.4134 30.1595 26.1702 30.3113 25.927 30.5239C25.3797 30.9491 24.9541 31.4655 24.5893 32.0729C24.194 32.7715 23.9508 33.5611 23.9204 34.4115C23.9204 34.5027 23.9204 34.5938 23.9204 34.6849C23.9204 37.5702 26.231 39.9089 29.0889 40H29.3017C31.0954 40 32.8588 39.6963 34.4701 39.1496C35.291 38.8762 36.0815 38.5421 36.8415 38.1473L36.9632 38.0866C36.9935 38.0866 37.0544 38.0258 37.0848 38.0258C39.3954 36.7502 40.9763 34.2597 40.9763 31.4047C40.9763 28.5497 40.9763 31.1921 40.9763 31.0706H40.8851ZM14.0091 12.3007C13.1883 12.3007 12.5194 11.6325 12.5194 10.8125C12.5194 9.99241 13.1883 9.32422 14.0091 9.32422C14.83 9.32422 15.4989 9.99241 15.4989 10.8125C15.4989 11.6325 14.83 12.3007 14.0091 12.3007ZM26.7175 12.3007C25.8966 12.3007 25.2277 11.6325 25.2277 10.8125C25.2277 9.99241 25.8966 9.32422 26.7175 9.32422C27.5383 9.32422 28.2072 9.99241 28.2072 10.8125C28.2072 11.6325 27.5383 12.3007 26.7175 12.3007ZM25.775 31.6477C25.775 31.6477 25.775 31.6477 25.775 31.6781C25.775 31.6781 25.775 31.6781 25.775 31.6477Z" fill="url(#paint0_linear_346_1553)"/>
<defs>
<linearGradient id="paint0_linear_346_1553" x1="20.0005" y1="3.48361e-08" x2="20.0005" y2="40" gradientUnits="userSpaceOnUse">
<stop stop-color="#FE67F7"/>
<stop offset="1" stop-color="#CB01C1"/>
</linearGradient>
</defs>
</svg>
