<svg width="23" height="24" viewBox="0 0 23 24" fill="none" xmlns="http://www.w3.org/2000/svg">
<path d="M6.22909 6.72852H6.2195M16.2916 2.41602H6.70825C4.06189 2.41602 1.91659 4.56132 1.91659 7.20768V16.791C1.91659 19.4374 4.06189 21.5827 6.70825 21.5827H16.2916C18.9379 21.5827 21.0833 19.4374 21.0833 16.791V7.20768C21.0833 4.56132 18.9379 2.41602 16.2916 2.41602ZM7.66659 11.3956C7.54832 12.1932 7.68455 13.0077 8.0559 13.7234C8.42725 14.4391 9.01482 15.0195 9.73503 15.382C10.4552 15.7445 11.2714 15.8706 12.0675 15.7425C12.8635 15.6144 13.5989 15.2386 14.169 14.6685C14.7392 14.0983 15.115 13.3629 15.2431 12.5669C15.3712 11.7708 15.245 10.9547 14.8825 10.2345C14.52 9.51425 13.9397 8.92668 13.224 8.55533C12.5083 8.18398 11.6937 8.04775 10.8962 8.16602C10.0826 8.28665 9.32944 8.66575 8.74788 9.24731C8.16632 9.82887 7.78722 10.582 7.66659 11.3956Z" stroke="url(#paint0_linear_726_5035)" stroke-width="2" stroke-linecap="round" stroke-linejoin="round"/>
<defs>
<linearGradient id="paint0_linear_726_5035" x1="11.4999" y1="2.41602" x2="11.4999" y2="21.5827" gradientUnits="userSpaceOnUse">
<stop stop-color="#BD00FF"/>
<stop offset="1" stop-color="#C77428"/>
</linearGradient>
</defs>
</svg>
